<svg width="38" height="38" viewBox="0 0 38 38" fill="none" xmlns="http://www.w3.org/2000/svg">
<path d="M37.8599 37.8599H36.5979C31.4107 37.8596 26.3974 35.9895 22.4773 32.5924L21.1501 31.4421C20.4139 31.5138 19.6695 31.5499 18.9299 31.5499C13.9193 31.5499 9.19798 29.9384 5.63576 27.0123C2.00145 24.0271 0 20.0361 0 15.7749C0 11.5137 2.00145 7.52283 5.63576 4.53758C9.19798 1.61149 13.9193 0 18.9299 0C23.9406 0 28.6619 1.61149 32.2241 4.53758C35.8584 7.52283 37.8599 11.5137 37.8599 15.7749C37.8581 18.0401 37.2864 20.2684 36.1974 22.2546C35.2522 23.9844 33.9933 25.5234 32.4852 26.7928C33.6123 29.6588 35.3158 32.2628 37.4902 34.4436L37.8599 34.8132V37.8599ZM21.9631 28.8068L24.1304 30.6851C27.1195 33.2755 30.8412 34.8706 34.7785 35.2488C32.6061 32.8206 30.9285 29.9918 29.8396 26.921L29.4929 25.938L30.2193 25.3805C33.5188 22.8483 35.3359 19.437 35.3359 15.7749C35.3359 8.4683 27.9762 2.52399 18.9299 2.52399C9.88371 2.52399 2.52399 8.4683 2.52399 15.7749C2.52399 23.0816 9.88371 29.0259 18.9299 29.0259C19.7578 29.0258 20.5849 28.9754 21.4066 28.875L21.9631 28.8068Z" fill="black"/>
</svg>
