<svg width="39" height="37" viewBox="0 0 39 37" fill="none" xmlns="http://www.w3.org/2000/svg">
<path d="M35.4112 3.64302C34.4487 2.64608 33.3059 1.85537 32.0483 1.31607C30.7906 0.776778 29.4427 0.499471 28.0815 0.500001C26.7203 0.50053 25.3725 0.778885 24.1153 1.31916C22.858 1.85943 21.7158 2.65103 20.754 3.64872L19.4986 4.96494L18.2536 3.65157L18.2455 3.64318C17.2834 2.64671 16.1413 1.85627 14.8843 1.31698C13.6274 0.777695 12.2801 0.500128 10.9196 0.500128C9.55906 0.500128 8.21185 0.777695 6.95487 1.31698C5.6979 1.85627 4.55578 2.64671 3.59374 3.64318L3.03445 4.22249C1.09152 6.23494 0 8.9644 0 11.8104C0 14.6564 1.09152 17.3859 3.03445 19.3983L17.7957 34.6876L19.4626 36.4966L19.5024 36.4553L19.5455 36.5L21.1073 34.7932L35.9705 19.3981C37.9105 17.3841 39 14.6552 39 11.8102C39 8.96514 37.9105 6.23628 35.9705 4.22224L35.4112 3.64302ZM34.1386 17.5011L19.5024 32.6614L4.86579 17.5011C3.4086 15.9918 2.58997 13.9447 2.58997 11.8102C2.58997 9.6757 3.4086 7.62861 4.86579 6.11927L5.42517 5.53997C6.88165 4.03139 8.85683 3.18352 10.9166 3.18272C12.9764 3.18191 14.9522 4.02824 16.4097 5.53569L19.493 8.78743L22.5909 5.53997C23.3124 4.79261 24.169 4.19978 25.1117 3.79532C26.0545 3.39085 27.0649 3.18268 28.0853 3.18268C29.1057 3.18268 30.1161 3.39085 31.0588 3.79532C32.0016 4.19978 32.8581 4.79261 33.5797 5.53997L34.139 6.11919C35.594 7.62977 36.411 9.67645 36.411 11.8102C36.4109 13.944 35.5937 15.9907 34.1386 17.5011Z" fill="black"/>
</svg>
