<svg width="39" height="36" viewBox="0 0 39 36" fill="none" xmlns="http://www.w3.org/2000/svg">
<path d="M35.1424 24.5742L27.4247 21.0242L30.3344 17.2491C31.0126 16.3675 31.3685 15.3799 31.3696 14.3761V8.4C31.3696 6.17218 30.119 4.03561 27.893 2.4603C25.6671 0.884997 22.648 0 19.5 0C16.352 0 13.3329 0.884997 11.107 2.4603C8.88098 4.03561 7.63044 6.17218 7.63044 8.4V14.3761C7.6315 15.3799 7.98737 16.3676 8.66564 17.2492L11.5753 21.0242L3.85762 24.5742C2.67152 25.1176 1.69691 25.8628 1.02299 26.7417C0.349069 27.6205 -0.00265093 28.605 1.50434e-05 29.6049V36H39V29.6049C39.0026 28.605 38.6509 27.6205 37.977 26.7417C37.3031 25.8628 36.3285 25.1176 35.1424 24.5742ZM35.6087 33.6H3.39132V29.6049C3.38973 29.0049 3.60078 28.4143 4.00515 27.8869C4.40952 27.3596 4.99431 26.9125 5.70599 26.5865L16.0558 21.8255L11.6429 16.1C11.2359 15.571 11.0224 14.9784 11.0217 14.3761V8.4C11.0217 6.8087 11.915 5.28258 13.505 4.15736C15.095 3.03214 17.2514 2.4 19.5 2.4C21.7486 2.4 23.9051 3.03214 25.495 4.15736C27.085 5.28258 27.9783 6.8087 27.9783 8.4V14.3761C27.9776 14.9784 27.7641 15.571 27.3571 16.1L22.9443 21.8255L33.2943 26.5865C34.006 26.9125 34.5907 27.3597 34.995 27.887C35.3993 28.4143 35.6103 29.005 35.6087 29.6049V33.6Z" fill="black"/>
</svg>
